<?xml version="1.0" encoding="utf-8"?>
<!-- Generator: Adobe Illustrator 16.0.0, SVG Export Plug-In . SVG Version: 6.00 Build 0)  -->
<!DOCTYPE svg PUBLIC "-//W3C//DTD SVG 1.1//EN" "http://www.w3.org/Graphics/SVG/1.1/DTD/svg11.dtd">
<svg version="1.1" xmlns="http://www.w3.org/2000/svg" xmlns:xlink="http://www.w3.org/1999/xlink" x="0px" y="0px" width="60px"
	 height="60px" viewBox="0 0 60 60" enable-background="new 0 0 60 60" xml:space="preserve">
<g id="FONS">
</g>
<g id="Icons">
	<g>
		<path fill="#FFF8EF" d="M50.54,55.804c0,1.65-1.35,3-3,3H12.46c-1.65,0-3-1.35-3-3V4.195c0-1.65,1.35-3,3-3h35.08
			c1.65,0,3,1.35,3,3V55.804z"/>
		<path fill="none" stroke="#2A2B2B" stroke-width="2" stroke-miterlimit="10" d="M50.54,55.804c0,1.65-1.35,3-3,3H12.46
			c-1.65,0-3-1.35-3-3V4.195c0-1.65,1.35-3,3-3h35.08c1.65,0,3,1.35,3,3V55.804z"/>
	</g>
	<circle fill="#82C790" cx="39.489" cy="46.572" r="4.256"/>
	<path fill="#2A2B2B" d="M24.488,10.366c0-0.962-0.644-1.752-1.464-1.85C22.792,7.808,22.193,7.3,21.492,7.3
		c-0.308,0-0.592,0.098-0.84,0.266c-0.281-0.571-0.812-0.956-1.426-0.956c-0.814,0-1.488,0.681-1.612,1.568
		c-0.065-0.01-0.132-0.016-0.204-0.016c-0.899,0-1.635,0.833-1.635,1.86c0,0.046,0.006,0.096,0.008,0.152
		c-0.458,0.325-0.763,0.911-0.763,1.567c0,0.585,0.24,1.106,0.61,1.453c-0.001,0.029-0.004,0.062-0.004,0.099
		c0,1.026,0.73,1.861,1.633,1.861c0.272,0,0.526-0.076,0.75-0.207c0.311,0.252,0.756,0.569,0.971,0.508c0,0,0.083,1.415,0.066,1.776
		c-0.035,0.683-0.214,1.446-0.339,2.062h1.964c0,0-0.291-1.375-0.303-1.835c-0.015-0.46,0.124-1.304,0.124-1.304l0.683-0.803
		c0.264,0.205,0.58,0.322,0.919,0.322c0.847,0,1.542-0.734,1.626-1.665c0.624-0.267,1.065-0.949,1.065-1.751
		c0-0.474-0.154-0.899-0.408-1.228C24.445,10.823,24.488,10.599,24.488,10.366z M18.388,14.637c0.128-0.14,0.241-0.307,0.324-0.494
		l0.321,0.768C19.033,14.911,18.857,15.002,18.388,14.637z M19.586,15.111c-0.166,0.035-0.447-0.549-0.65-1.02
		c0.223,0.128,0.474,0.204,0.743,0.204c0.067,0,0.134-0.008,0.201-0.016C19.829,14.656,19.737,15.079,19.586,15.111z M20.293,15.48
		c-0.384,0.127-0.156-0.779-0.046-1.306c0.081-0.035,0.157-0.074,0.23-0.116c0.045,0.38,0.192,0.721,0.406,0.997
		C20.699,15.243,20.482,15.424,20.293,15.48z"/>
	<path fill="#2A2B2B" d="M45.12,10.295c0-0.661-0.535-1.195-1.195-1.195h-4.752c-0.66,0-1.195,0.535-1.195,1.195
		c0,0.66,0.535,1.194,1.195,1.194h4.752C44.585,11.489,45.12,10.955,45.12,10.295z"/>
	<path fill="#2A2B2B" d="M45.12,15.601c0-0.66-0.535-1.194-1.195-1.194h-10.18c-0.66,0-1.195,0.535-1.195,1.194
		c0,0.661,0.535,1.195,1.195,1.195h10.18C44.585,16.795,45.12,16.261,45.12,15.601z"/>
	<path fill="#2A2B2B" d="M34.288,46.572c0,2.868,2.333,5.202,5.201,5.202c2.868,0,5.201-2.334,5.201-5.202
		c0-2.867-2.333-5.201-5.201-5.201C36.622,41.371,34.288,43.705,34.288,46.572z M36.568,46.572c0-1.609,1.311-2.919,2.92-2.919
		s2.92,1.311,2.92,2.919c0,1.611-1.311,2.92-2.92,2.92S36.568,48.183,36.568,46.572z"/>
	<path fill="#2A2B2B" d="M20.498,46.765c0,0.66,0.535,1.195,1.195,1.195h6.574c0.66,0,1.194-0.536,1.194-1.195
		c0-0.661-0.535-1.195-1.194-1.195h-6.574C21.032,45.57,20.498,46.104,20.498,46.765z"/>
	<path fill="#2A2B2B" d="M45.12,23.929c0-0.661-0.537-1.195-1.196-1.195H16.076c-0.66,0-1.195,0.534-1.195,1.195
		c0,0.66,0.536,1.195,1.195,1.195h27.848C44.583,25.124,45.12,24.588,45.12,23.929z"/>
	<path fill="#2A2B2B" d="M45.12,27.992c0-0.659-0.537-1.194-1.196-1.194H16.076c-0.66,0-1.195,0.536-1.195,1.194
		c0,0.662,0.536,1.196,1.195,1.196h27.848C44.583,29.188,45.12,28.653,45.12,27.992z"/>
	<path fill="#2A2B2B" d="M45.12,32.415c0-0.66-0.537-1.195-1.196-1.195H16.076c-0.66,0-1.195,0.535-1.195,1.195
		s0.536,1.195,1.195,1.195h27.848C44.583,33.61,45.12,33.074,45.12,32.415z"/>
	<path fill="#2A2B2B" d="M14.88,36.479c0,0.66,0.536,1.195,1.195,1.195h0.658c0.66,0,1.194-0.535,1.194-1.195
		c0-0.661-0.534-1.195-1.194-1.195h-0.658C15.416,35.283,14.88,35.818,14.88,36.479z"/>
	<path fill="#2A2B2B" d="M20.916,37.673h23.008c0.66,0,1.196-0.535,1.196-1.195c0-0.661-0.537-1.195-1.196-1.195H20.916
		c-0.66,0-1.195,0.535-1.195,1.195C19.721,37.138,20.256,37.673,20.916,37.673z"/>
	<g>
		<path fill="#2A2B2B" d="M42.634,50.796c0.001-0.55-0.01-1-0.025-1c-0.016,0-0.097,0.056-0.112,0.056
			c-0.016,0-0.041,0.056-0.057,0.056c-0.015,0-0.077,0.013-0.138,0.028c-0.06,0.015-0.234,0.084-0.25,0.084s-0.109,0.069-0.14,0.084
			c-0.031,0.015-0.056,0.028-0.107,0.028c0,0-0.013,0-0.028,0c-0.016,0-0.028,0-0.084,0c-0.056,0-0.056,0-0.056,0
			c-0.031,0.031-0.069,0.056-0.084,0.056s-0.053,0-0.084,0s-0.18,0.081-0.27,0.112c0,0,0,0-0.112,0c-0.056,0-0.056,0-0.056,0
			c-0.089,0.031-0.262,0.082-0.382,0.112c0,0,0,0-0.168,0c-0.056,0-0.056,0-0.056,0c-0.09,0.031-0.176,0.056-0.192,0.056
			c-0.015,0-0.041,0-0.056,0s-0.109,0-0.14,0c0,0,0,0-0.056,0c-0.163,0-0.163,0-0.163,0c-0.152,0-0.301,0-0.332,0c0,0,0,0-0.056,0
			c-0.056,0-0.056,0-0.056,0c-0.031,0-0.144,0-0.25,0s-0.369-0.056-0.385-0.056c-0.015,0-0.041,0-0.056,0s-0.35-0.062-0.744-0.138
			s-1.359-0.425-1.404-0.441s-0.143,0.366-0.147,0.916l-0.037,3.999c-0.005,0.55,0.334,0.71,0.755,0.355l0.949-0.8
			c0.42-0.355,0.961-0.744,1.203-0.864c0,0,0,0,0.224,0c0.225,0,0.225,0,0.225,0c0.241,0.12,0.782,0.509,1.202,0.864l0.949,0.8
			c0.42,0.355,0.766,0.195,0.767-0.355L42.634,50.796z"/>
	</g>
</g>
</svg>
