<svg width="46" height="46" viewBox="0 0 46 46" fill="none" xmlns="http://www.w3.org/2000/svg">
<g clip-path="url(#clip0_4_80)">
<path d="M23.028 0C10.3319 0 0 10.3142 0 22.9884C0 34.1281 7.97757 43.4419 18.5333 45.53C19.7007 45.7825 20.8974 45.9379 22.1232 45.9864V33.827L16.0135 28.5825C15.4103 29.0098 14.6807 29.272 13.8829 29.272C11.8496 29.272 10.1957 27.621 10.1957 25.5912C10.1957 23.5614 11.8496 21.9103 13.8829 21.9103C15.9162 21.9103 17.5701 23.5614 17.5701 25.5912C17.5701 26.1836 17.4145 26.7275 17.1712 27.2228L22.1232 31.467V19.9097L19.9148 18.0158C19.2532 18.6277 18.3776 19.0161 17.4047 19.0161C15.3714 19.0161 13.7175 17.3651 13.7175 15.3353C13.7175 13.3055 15.3714 11.6544 17.4047 11.6544C19.438 11.6544 21.0919 13.3055 21.0919 15.3353C21.0919 15.7432 21.0141 16.122 20.8876 16.491L23.0182 18.3266L25.178 16.5104C25.0515 16.1414 24.9737 15.7529 24.9737 15.345C24.9737 13.3152 26.6276 11.6641 28.6609 11.6641C30.6942 11.6641 32.3481 13.3152 32.3481 15.345C32.3481 17.3748 30.6942 19.0259 28.6609 19.0259C27.688 19.0259 26.8124 18.6471 26.1606 18.0352L23.923 19.9582V29.1264L29.1668 24.62C28.9528 24.1538 28.836 23.6488 28.836 23.1049C28.836 21.0751 30.4899 19.424 32.5232 19.424C34.5565 19.424 36.2104 21.0751 36.2104 23.1049C36.2104 25.1347 34.5565 26.7858 32.5232 26.7858C31.6768 26.7858 30.9082 26.4944 30.2856 26.0185L23.923 31.467V45.9864C25.1488 45.9379 26.3455 45.7825 27.5129 45.53C38.0686 43.4419 46.0462 34.1281 46.0462 22.9884C46.0462 10.3142 35.724 0 23.028 0ZM27.5129 43.6944V33.118L30.9277 30.185C31.4433 30.3015 31.9784 30.3598 32.5232 30.3598C36.5412 30.3598 39.8003 27.0965 39.8003 23.0952C39.8003 20.2787 38.1853 17.8216 35.8213 16.6173C35.8991 16.1997 35.938 15.7723 35.938 15.3256C35.938 11.3145 32.6691 8.06098 28.6609 8.06098C26.3941 8.06098 24.3705 9.10017 23.028 10.7221C21.6951 9.10017 19.6618 8.06098 17.395 8.06098C13.377 8.06098 10.1179 11.3242 10.1179 15.3256C10.1179 16.6173 10.4584 17.841 11.0519 18.8899C8.43483 19.9971 6.59609 22.5805 6.59609 25.5912C6.59609 29.6023 9.86495 32.8558 13.8732 32.8558C14.3596 32.8558 14.8363 32.8072 15.3131 32.7101L18.5235 35.4683V43.6944C8.97964 41.6354 1.79982 33.1374 1.79982 22.9884C1.79982 11.3048 11.3243 1.79672 23.028 1.79672C34.7316 1.79672 44.2561 11.3048 44.2561 22.9884C44.2561 33.1374 37.0665 41.6354 27.5129 43.6944Z" fill="url(#paint0_linear_4_80)"/>
<path d="M15.4783 15.3548C15.4783 16.4037 16.3247 17.2583 17.3754 17.2583C18.4261 17.2583 19.2823 16.4134 19.2823 15.3645C19.2823 14.3156 18.4359 13.4609 17.3852 13.4609C16.3247 13.4706 15.4783 14.3156 15.4783 15.3548Z" fill="url(#paint1_linear_4_80)"/>
<path d="M28.661 17.2486C29.7088 17.2486 30.5581 16.4007 30.5581 15.3548C30.5581 14.3088 29.7088 13.4609 28.661 13.4609C27.6133 13.4609 26.7639 14.3088 26.7639 15.3548C26.7639 16.4007 27.6133 17.2486 28.661 17.2486Z" fill="url(#paint2_linear_4_80)"/>
<path d="M13.8536 27.5433C14.9014 27.5433 15.7508 26.6954 15.7508 25.6494C15.7508 24.6035 14.9014 23.7556 13.8536 23.7556C12.8059 23.7556 11.9565 24.6035 11.9565 25.6494C11.9565 26.6954 12.8059 27.5433 13.8536 27.5433Z" fill="url(#paint3_linear_4_80)"/>
<path d="M32.5329 25.0376C33.5807 25.0376 34.43 24.1897 34.43 23.1438C34.43 22.0978 33.5807 21.2499 32.5329 21.2499C31.4852 21.2499 30.6358 22.0978 30.6358 23.1438C30.6358 24.1897 31.4852 25.0376 32.5329 25.0376Z" fill="url(#paint4_linear_4_80)"/>
</g>
<defs>
<linearGradient id="paint0_linear_4_80" x1="23.0263" y1="45.986" x2="23.0263" y2="0" gradientUnits="userSpaceOnUse">
<stop stop-color="#32C070"/>
<stop offset="1" stop-color="#25A3C1"/>
</linearGradient>
<linearGradient id="paint1_linear_4_80" x1="17.3754" y1="46.1399" x2="17.3754" y2="0.0962066" gradientUnits="userSpaceOnUse">
<stop stop-color="#32C070"/>
<stop offset="1" stop-color="#25A3C1"/>
</linearGradient>
<linearGradient id="paint2_linear_4_80" x1="28.661" y1="46.0904" x2="28.661" y2="0.0466687" gradientUnits="userSpaceOnUse">
<stop stop-color="#32C070"/>
<stop offset="1" stop-color="#25A3C1"/>
</linearGradient>
<linearGradient id="paint3_linear_4_80" x1="13.8488" y1="46.2253" x2="13.8488" y2="0.0951568" gradientUnits="userSpaceOnUse">
<stop stop-color="#32C070"/>
<stop offset="1" stop-color="#25A3C1"/>
</linearGradient>
<linearGradient id="paint4_linear_4_80" x1="32.532" y1="46.0913" x2="32.532" y2="0.234061" gradientUnits="userSpaceOnUse">
<stop stop-color="#32C070"/>
<stop offset="1" stop-color="#25A3C1"/>
</linearGradient>
<clipPath id="clip0_4_80">
<rect width="46" height="46" fill="white"/>
</clipPath>
</defs>
</svg>
