<?xml version="1.0" encoding="utf-8"?>
<!-- Generator: Adobe Illustrator 26.0.3, SVG Export Plug-In . SVG Version: 6.00 Build 0)  -->
<svg version="1.1" id="Capa_1" xmlns="http://www.w3.org/2000/svg" xmlns:xlink="http://www.w3.org/1999/xlink" x="0px" y="0px"
	 viewBox="0 0 109 109" style="enable-background:new 0 0 109 109;" xml:space="preserve">
<style type="text/css">
	.st0{fill:#25A3C1;}
	.st1{stroke:#000000;stroke-width:1.5;stroke-miterlimit:10;}
</style>
<path class="st0" d="M53.8,0C43,0,32.5,3.2,23.5,9.2S7.6,23.7,3.4,33.7c-4.1,10-5.2,20.9-3.1,31.5c2.2,10.5,7.4,20.2,15,27.8
	c7.6,7.6,17.3,12.8,27.9,14.9s21.5,1,31.5-3.1c10-4.1,18.5-11.1,24.5-20.1s9.2-19.5,9.2-30.3c0-14.4-5.8-28.3-16-38.5
	C82.1,5.7,68.3,0,53.8,0L53.8,0z M53.8,105c-10,0-19.8-3-28.1-8.5C17.4,90.9,10.9,83,7.1,73.8S2.3,54.4,4.2,44.6S11,25.8,18.1,18.7
	S34.2,6.8,44,4.9S64,4,73.2,7.8s17.1,10.3,22.7,18.6s8.5,18.1,8.5,28.1c0,13.4-5.3,26.3-14.8,35.7C80.1,99.7,67.2,105,53.8,105
	L53.8,105z"/>
<g>
	<path class="st1" d="M85.1,38.3L85.1,38.3c-0.1-0.1-0.2-0.1-0.2-0.2L54.2,22c-0.3-0.2-0.6-0.2-0.9,0L22.6,38.2
		c-0.4,0.2-0.6,0.6-0.5,1l0,0v30.7c0,0.4,0.2,0.7,0.5,0.9L53.3,87c0,0,0.1,0,0.1,0.1h0.1c0.1,0,0.2,0,0.3,0s0.2,0,0.3,0h0.1
		c0,0,0.1,0,0.1-0.1L85,70.8c0.3-0.2,0.5-0.5,0.5-0.9V39.2C85.6,38.8,85.4,38.5,85.1,38.3z M53.7,24l28.7,15.1L69.3,46L40.6,30.9
		L53.7,24z M53.8,54.2L25.1,39.1l13.3-7l28.8,15.1L53.8,54.2z M24.1,40.8l28.8,15.1v28.5L24.1,69.3V40.8z M54.8,55.9l28.6-15v28.5
		l-28.6,15V55.9z"/>
	<path class="st1" d="M73.1,58.5c-1.9-2.3-5.2-3-7.9-1.6c-1.9,1-3.1,2.7-3.4,4.8c-0.4,0.1-0.9,0.2-1.3,0.4c-2.1,1.1-2.9,3.7-1.8,5.8
		c0,0.1,0.1,0.1,0.1,0.1c-1,1.4-1.1,3.3-0.3,4.8c0.8,1.6,2.5,2.6,4.2,2.6c0.7,0,1.5-0.2,2.2-0.5l10.8-5.6c1.4-0.7,2.4-1.9,2.8-3.4
		c0.5-1.5,0.3-3-0.4-4.4C77.2,59.7,75.3,58.5,73.1,58.5z M77.1,65.5c-0.3,1.1-1.1,1.9-2,2.4l-10.8,5.6c-1.6,0.8-3.6,0.2-4.4-1.3
		c-0.6-1.2-0.4-2.6,0.4-3.5c0.3-0.3,0.3-0.7,0-1c-0.1-0.1-0.2-0.3-0.3-0.4c-0.7-1.3-0.2-2.9,1.2-3.6c0.4-0.2,0.8-0.3,1.2-0.3l0,0
		c0.4,0,0.8-0.3,0.8-0.8c0.1-1.8,1-3.3,2.6-4.2c2.1-1.1,4.8-0.5,6.2,1.4c0.2,0.2,0.4,0.3,0.7,0.3c1.7-0.1,3.2,0.7,4,2.2
		C77.3,63.3,77.4,64.5,77.1,65.5z"/>
	<path class="st1" d="M80.5,49.5c-0.3-0.1-0.6,0.1-0.7,0.4l-1.1,5.3c-0.8-0.6-1.8-1-2.7-1c-0.3,0-0.6,0.3-0.6,0.6
		c0,0.3,0.3,0.6,0.6,0.6c0.9,0,2,0.6,2.6,1.3c0.1,0.1,0.3,0.2,0.4,0.2h0.1c0.2-0.1,0.4-0.2,0.4-0.4l1.3-6.3
		C81,49.8,80.8,49.5,80.5,49.5z"/>
</g>
</svg>
