<?xml version="1.0" encoding="utf-8"?>
<!-- Generator: Adobe Illustrator 26.0.3, SVG Export Plug-In . SVG Version: 6.00 Build 0)  -->
<svg version="1.1" id="Capa_1" xmlns="http://www.w3.org/2000/svg" xmlns:xlink="http://www.w3.org/1999/xlink" x="0px" y="0px"
	 viewBox="0 0 109 109" style="enable-background:new 0 0 109 109;" xml:space="preserve">
<style type="text/css">
	.st0{fill:#25A3C1;}
	.st1{stroke:#000000;stroke-width:1.5;stroke-miterlimit:10;}
</style>
<g>
	<path class="st0" d="M54.5,0C43.7,0,33.2,3.2,24.2,9.2S8.3,23.7,4.1,33.7S-1.1,54.6,1,65.2s7.3,20.3,14.9,27.9s17.3,12.8,27.9,14.9
		s21.5,1,31.5-3.1s18.5-11.1,24.5-20.1s9.2-19.5,9.2-30.3c0-14.5-5.8-28.3-16-38.5C82.8,5.7,68.9,0,54.5,0L54.5,0z M54.5,105.1
		c-10,0-19.8-3-28.1-8.5C18.1,91,11.6,83.1,7.8,73.9S3,54.5,4.9,44.7c2-9.8,6.8-18.8,13.8-25.9C25.8,11.7,34.8,6.9,44.6,5
		c9.8-2,20-0.9,29.2,2.9s17.1,10.3,22.7,18.6s8.5,18.1,8.5,28.1c0,13.4-5.3,26.3-14.8,35.8C80.7,99.7,67.9,105.1,54.5,105.1
		L54.5,105.1z"/>
	<g>
		<path class="st1" d="M85.1,27.3H23.9c-1.1,0-2,0.9-2,2V70c0,1.1,0.9,2,2,2h26.2l-1.6,7.7h-3.3c-0.5,0-1,0.4-1,1s0.4,1,1,1h14.4
			h0.1h0.1h4c0.5,0,1-0.4,1-1s-0.4-1-1-1h-3.3L58.9,72h26.2c1.1,0,2-0.9,2-2V29.3C87.1,28.2,86.2,27.3,85.1,27.3z M85.1,29.3v33
			H23.8v-33H85.1z M58.5,79.7h-8l1.6-7.7H57L58.5,79.7z M85.1,70H23.8v-5.7h61.3V70L85.1,70z"/>
		<path class="st1" d="M44.6,56h15.7c4.1,0,7.4-3.3,7.4-7.4c0-2.8-1.5-5.3-4-6.5c-0.8-3.7-4.2-6.4-8-6.4c-2.7,0-5.2,1.3-6.8,3.5
			c-0.6-0.2-1.1-0.3-1.7-0.3c-3,0-5.5,2.5-5.5,5.5c0,0.1,0,0.2,0,0.2c-1.9,1.1-3.2,3.1-3.2,5.3C38.5,53.3,41.3,56,44.6,56z
			 M43.1,46.1c0.4-0.2,0.7-0.6,0.6-1.1c0-0.2-0.1-0.4-0.1-0.7c0-1.9,1.6-3.5,3.5-3.5c0.6,0,1.1,0.1,1.6,0.4c0.5,0.2,1,0.1,1.3-0.4
			c1.1-2,3.2-3.2,5.5-3.2c3.1,0,5.8,2.3,6.3,5.4c0.1,0.3,0.3,0.6,0.6,0.7c2,0.9,3.3,2.8,3.3,5c0,3-2.4,5.4-5.4,5.4H44.6
			c-2.3,0-4.1-1.9-4.1-4.1C40.5,48.2,41.5,46.7,43.1,46.1z"/>
		<path class="st1" d="M54.5,66.9c-0.3,0-0.5,0.2-0.5,0.5s0.2,0.5,0.5,0.5s0.5-0.2,0.5-0.5C55,67.1,54.7,66.9,54.5,66.9z M54.5,67.5
			c-0.1,0-0.2-0.1-0.2-0.2s0.1-0.2,0.2-0.2s0.2,0.1,0.2,0.2S54.6,67.5,54.5,67.5z"/>
		<path class="st1" d="M68.3,40.8c0.9,0.4,2,1.5,2.3,2.7c0.1,0.4,0.4,0.6,0.8,0.7c0.1,0,0.1,0,0.2,0c0.3,0,0.6-0.2,0.8-0.4l4.7-6.8
			c0.3-0.4,0.2-1.1-0.2-1.4c-0.4-0.3-1.1-0.2-1.4,0.2l-3.8,5.5c-0.7-1-1.6-1.8-2.6-2.3c-0.5-0.2-1.1,0-1.3,0.5
			C67.6,40.1,67.8,40.6,68.3,40.8z"/>
	</g>
</g>
</svg>
