<?xml version="1.0" encoding="utf-8"?>
<!-- Generator: Adobe Illustrator 26.0.3, SVG Export Plug-In . SVG Version: 6.00 Build 0)  -->
<svg version="1.1" id="Capa_1" xmlns="http://www.w3.org/2000/svg" xmlns:xlink="http://www.w3.org/1999/xlink" x="0px" y="0px"
	 viewBox="0 0 109 109" style="enable-background:new 0 0 109 109;" xml:space="preserve">
<style type="text/css">
	.st0{fill:#25A3C1;}
	.st1{stroke:#000000;stroke-width:1.5;stroke-miterlimit:10;}
</style>
<path class="st0" d="M54.5,0C43.7,0,33.2,3.2,24.2,9.2S8.3,23.7,4.1,33.7C0,43.7-1.1,54.6,1,65.2s7.3,20.3,14.9,27.9
	s17.3,12.8,27.9,14.9s21.5,1,31.5-3.1s18.5-11.1,24.5-20.1s9.2-19.5,9.2-30.3c0-14.4-5.8-28.3-16-38.5C82.8,5.7,68.9,0,54.5,0
	L54.5,0z M54.5,105c-10,0-19.8-3-28.1-8.5C18.1,90.9,11.6,83,7.8,73.8S3,54.4,4.9,44.6c2-9.8,6.8-18.8,13.8-25.9S34.8,6.8,44.6,4.9
	s20-0.9,29.2,2.9s17.1,10.3,22.7,18.6s8.5,18.1,8.5,28.1c0,13.4-5.3,26.3-14.8,35.7C80.7,99.7,67.9,105,54.5,105z"/>
<g>
	<path class="st1" d="M75.5,63.8c-1-1.4-2.4-2.4-3.9-2.8l-12.9-3.7v-1.9c0.9-0.3,1.9-0.7,2.8-1.2c3.3-2,5.5-5.4,6.1-9.2
		c0.1,0,0.2,0.1,0.3,0.1c2.5,0,4.5-2,4.5-4.5c0-1.3-0.6-2.5-1.5-3.3C71,37.2,71,37,71,36.9v-0.7c0-6-3-11.7-7.9-14.7s-11.1-3-16,0
		s-7.9,8.7-7.9,14.7v0.5c0,0.2,0.1,0.4,0.2,0.6c-0.8,0.8-1.4,2-1.4,3.2c0,2.5,2,4.5,4.5,4.5c0.1,0,0.1,0,0.2,0
		c0.6,3.8,2.9,7.2,6.1,9.1c0.5,0.3,1.1,0.6,1.6,0.8v2.4l-12.9,3.6c-1.5,0.4-2.9,1.5-3.9,2.8c-1,1.4-1.5,3-1.5,4.7v21.4H77V68.4
		C76.9,66.8,76.4,65.2,75.5,63.8z M67.8,43L67.8,43c-0.1-0.1-0.1-0.2-0.1-0.3v-4.6h0.1c1.4,0,2.5,1.1,2.5,2.5
		C70.3,41.9,69.2,43,67.8,43z M48.1,23.1c4.3-2.6,9.6-2.6,13.9,0c4.2,2.6,6.9,7.5,7,12.7L65.4,36l-2.7-4.7c-0.1-0.2-0.4-0.4-0.6-0.5
		c-0.1,0-0.2,0-0.2,0c-0.2,0-0.4,0.1-0.5,0.2l-5.9,3.7v-2.4c0-0.3-0.2-0.6-0.4-0.8c-0.3-0.2-0.6-0.2-0.9-0.1l-12.9,4.1
		C41.3,30.3,43.9,25.6,48.1,23.1z M42.4,43c-1.4,0-2.5-1.1-2.5-2.5S41,38,42.4,38v4.7C42.4,42.8,42.4,42.9,42.4,43L42.4,43z
		 M44.4,42.7v-6.2h-0.2l9.1-2.9v2.8c0,0.4,0.2,0.7,0.5,0.9s0.7,0.2,1,0l6.5-4.1l2.5,4.4c0.2,0.3,0.5,0.5,0.9,0.5c0,0,0,0,0.1,0
		l0.9-0.1v4.7c0,4-2,7.7-5.3,9.7c-0.5,0.3-1.1,0.6-1.7,0.8v-0.1l-1.3,0.3c-0.9,0.2-1.7,0.3-2.4,0.4c-1.8,0-3.6-0.5-5.2-1.5
		C46.4,50.4,44.4,46.7,44.4,42.7z M55,55.9c0.5,0,1.1,0,1.6-0.1v4.1c0,0.5-0.4,1-1,1.3c-0.7,0.3-1.6,0.3-2.3,0c-0.6-0.3-1-0.8-1-1.3
		v-4.2C53,55.9,53.9,55.9,55,55.9L55,55.9z M34,87.9V68.6c0-1.3,0.4-2.6,1.1-3.6c0.7-1,1.7-1.7,2.8-2l12.4-3.4V60
		c0,1.3,0.8,2.5,2.2,3.2c0.6,0.3,1.3,0.4,2,0.4s1.4-0.1,2-0.4c1.3-0.6,2.2-1.8,2.2-3.2v-0.6L71.1,63c1.1,0.3,2.1,1,2.8,2
		c0.7,1,1.1,2.3,1.1,3.6v19.3H34z"/>
	<path class="st1" d="M61.1,71.9C60.5,69.6,58.4,68,56,68l0,0c-1.6,0-3.1,0.7-4.1,1.9c-0.3-0.1-0.6-0.1-0.8-0.1l0,0
		c-2,0-3.6,1.6-3.6,3.5c-1.1,0.7-1.8,2-1.9,3.4c0,1.1,0.4,2.1,1.2,2.8c0.8,0.8,1.8,1.2,2.8,1.2h9.2l0,0c2.6,0,4.7-2.1,4.7-4.7
		C63.4,74.3,62.5,72.7,61.1,71.9z M58.7,78.7L58.7,78.7h-9.2c-0.5,0-1-0.2-1.4-0.6s-0.6-0.9-0.6-1.4c0-0.8,0.5-1.5,1.2-1.8l0.8-0.3
		l-0.1-0.9c0-0.1,0-0.2,0-0.3c0-0.9,0.7-1.6,1.6-1.6l0,0c0.3,0,0.5,0.1,0.7,0.2l0.9,0.5l0.5-0.9c0.6-1,1.6-1.6,2.8-1.6l0,0
		c1.6,0,3,1.2,3.2,2.8l0.1,0.6l0.5,0.2c1,0.4,1.6,1.4,1.6,2.5C61.4,77.5,60.2,78.7,58.7,78.7z"/>
	<path class="st1" d="M58.6,42.5c0.6,0,1-0.5,1-1s0.4-0.9,0.9-0.9s0.9,0.4,0.9,0.9c0,0.6,0.5,1,1,1s1-0.5,1-1c0-1.6-1.3-2.9-2.9-2.9
		s-2.9,1.3-2.9,2.9C57.6,42.1,58,42.5,58.6,42.5z"/>
	<path class="st1" d="M51.5,42.5c0.6,0,1-0.5,1-1c0-1.6-1.3-2.9-2.9-2.9c-1.6,0-2.9,1.3-2.9,2.9c0,0.6,0.5,1,1,1c0.6,0,1-0.5,1-1
		s0.4-0.9,0.9-0.9s0.9,0.4,0.9,0.9C50.5,42.1,50.9,42.5,51.5,42.5z"/>
	<path class="st1" d="M55.1,50.7c1.9,0,3.7-1,4.7-2.7c0.3-0.5,0.1-1.1-0.4-1.4c-0.5-0.3-1.1-0.1-1.4,0.4c-0.6,1.1-1.7,1.7-3,1.7
		c-1.2,0-2.3-0.7-3-1.7c-0.3-0.5-0.9-0.7-1.4-0.4S50,47.5,50.2,48C51.3,49.6,53.1,50.7,55.1,50.7z"/>
	<path class="st1" d="M70.6,66.4c-0.5-0.3-1.1-0.2-1.4,0.3l-3,4.4c-0.6-0.8-1.3-1.4-2.1-1.8c-0.5-0.2-1.1,0-1.3,0.5
		c-0.2,0.5,0,1.1,0.5,1.3c0.7,0.3,1.6,1.2,1.8,2.1c0.1,0.4,0.4,0.7,0.8,0.7c0.1,0,0.1,0,0.2,0c0.3,0,0.6-0.2,0.8-0.4l4-5.7
		C71.2,67.3,71.1,66.7,70.6,66.4z"/>
</g>
</svg>
