<?xml version="1.0" encoding="utf-8"?>
<!-- Generator: Adobe Illustrator 26.0.3, SVG Export Plug-In . SVG Version: 6.00 Build 0)  -->
<svg version="1.1" id="Capa_1" xmlns="http://www.w3.org/2000/svg" xmlns:xlink="http://www.w3.org/1999/xlink" x="0px" y="0px"
	 viewBox="0 0 109 109" style="enable-background:new 0 0 109 109;" xml:space="preserve">
<style type="text/css">
	.st0{fill:#25A3C1;}
	.st1{stroke:#000000;stroke-width:1.7;stroke-miterlimit:10;}
</style>
<g>
	<path class="st0" d="M54.5,0C43.7,0,33.2,3.2,24.2,9.2S8.3,23.7,4.1,33.7C0,43.7-1.1,54.6,1,65.2s7.3,20.3,14.9,27.9
		s17.3,12.8,27.9,14.9s21.5,1,31.5-3.1s18.5-11.1,24.5-20.1s9.2-19.5,9.2-30.3c0-14.4-5.8-28.3-16-38.5C82.8,5.7,68.9,0,54.5,0
		L54.5,0z M54.5,105c-10,0-19.8-3-28.1-8.5C18.1,90.9,11.6,83,7.8,73.8S3,54.4,4.9,44.6s6.7-18.8,13.8-25.9S34.8,6.8,44.6,4.9
		s20-0.9,29.2,2.9s17.1,10.3,22.7,18.6s8.5,18.1,8.5,28.1c0,13.4-5.3,26.3-14.8,35.7C80.7,99.7,67.9,105,54.5,105L54.5,105z"/>
	<g>
		<path class="st1" d="M65.6,47.3c5.5,0,10-4.5,10-10s-4.5-10-10-10s-10,4.5-10,10S60.1,47.3,65.6,47.3z M65.6,29.5
			c4.3,0,7.8,3.5,7.8,7.8s-3.5,7.8-7.8,7.8s-7.8-3.5-7.8-7.8S61.3,29.5,65.6,29.5z"/>
		<path class="st1" d="M68.5,51.9h-5.8c-5.2,0-9.6,1.7-11.8,4.5c-1.1,1.5-1.6,3.1-1.4,4.8c-1.9-1.3-4.5-2-7.6-2h-4.4
			c-4.1,0-7.5,1.3-9.2,3.6c-1.1,1.4-1.4,2.9-1,4.5L30,79.5c0.9,3.9,4.5,6.9,8.4,6.9h2.5c3.8,0,7.5-3,8.4-6.9l2.1-9.3l1.8,8
			c1.1,5,5.8,8.8,10.7,8.8h3.3c4.9,0,9.6-3.9,10.7-8.8l3.6-16.1c0.5-2.1,0-3.9-1.3-5.7C78.1,53.6,73.7,51.9,68.5,51.9z M50,66.9
			l-2.7,12.2c-0.7,2.9-3.4,5.2-6.3,5.2h-2.5c-2.9,0-5.6-2.3-6.3-5.2l-2.7-12.2c-0.2-1.1,0-1.9,0.6-2.8c1.3-1.7,4.1-2.7,7.5-2.7H42
			c3.3,0,6.2,1,7.5,2.7C50.1,65,50.3,65.8,50,66.9z M79.5,61.7l-3.6,16.1c-0.9,4-4.7,7.2-8.6,7.2H64c-3.9,0-7.7-3.1-8.6-7.2
			l-3.7-16.1c-0.3-1.5,0-2.7,0.9-3.9c1.8-2.3,5.5-3.7,10.1-3.7h5.7c4.6,0,8.3,1.4,10.1,3.7C79.5,59,79.8,60.2,79.5,61.7z"/>
		<path class="st1" d="M39.7,56.2c4.3,0,7.8-3.5,7.8-7.8s-3.5-7.8-7.8-7.8s-7.8,3.5-7.8,7.8S35.4,56.2,39.7,56.2z M39.7,42.7
			c3.1,0,5.7,2.5,5.7,5.7c0,3.1-2.5,5.7-5.7,5.7c-3.1,0-5.7-2.5-5.7-5.7C34.1,45.3,36.6,42.7,39.7,42.7z"/>
		<path class="st1" d="M45,34.6c0.1,0.1,0.3,0.2,0.4,0.3c0.1,0,0.1,0,0.2,0c0.1,0,0.1,0,0.2,0c0.3,0,0.6-0.1,0.8-0.4l5.1-5.7
			c1-1.1,2.3-3.7,0.2-5.9c-0.9-0.9-2.1-1.3-3.3-1.1c-1.1,0.2-2.1,0.8-2.8,1.4c-0.7-0.6-1.7-1.2-2.8-1.4c-1.3-0.1-2.4,0.3-3.3,1.2
			c-2.1,2.2-0.8,4.8,0.2,5.9L45,34.6z M41.2,24.5c0.3-0.3,0.7-0.5,1.1-0.5c0.1,0,0.2,0,0.3,0c1.1,0.2,2.1,1.1,2.2,1.4
			c0.2,0.4,0.5,0.6,1,0.6c0.4,0,0.8-0.2,1-0.6C47,25.1,48,24.1,49,24c0.5-0.1,1,0.1,1.4,0.5c1.2,1.2-0.1,2.8-0.2,3l-4.3,4.8
			l-4.3-4.8C41.3,27.3,40,25.8,41.2,24.5z"/>
	</g>
</g>
</svg>
