<svg xmlns="http://www.w3.org/2000/svg" xmlns:xlink="http://www.w3.org/1999/xlink" viewBox="0 0 263.81 258.4"><defs><style>.cls-1{fill:#edf0f5;}.cls-2{fill:url(#linear-gradient);}.cls-3{fill:url(#linear-gradient-2);}.cls-4{fill:url(#linear-gradient-3);}.cls-5{fill:#f0c9ae;}.cls-6{fill:#dfe7eb;}.cls-7{fill:url(#linear-gradient-4);}.cls-8{fill:#8bc53f;}.cls-9{fill:url(#linear-gradient-5);}.cls-10{fill:#b2b2b2;}.cls-11{fill:#7288ab;}.cls-12{fill:#faaf3b;}.cls-13{fill:#fbed21;}.cls-14{fill:url(#linear-gradient-6);}.cls-15{fill:#fff;}.cls-16{fill:#646994;}</style><linearGradient id="linear-gradient" x1="87.42" y1="139.11" x2="108.42" y2="40.11" gradientUnits="userSpaceOnUse"><stop offset="0" stop-color="#dbb8a1"/><stop offset="1" stop-color="#f0c9ae"/></linearGradient><linearGradient id="linear-gradient-2" x1="96.36" y1="106.78" x2="94.86" y2="94.28" xlink:href="#linear-gradient"/><linearGradient id="linear-gradient-3" x1="82.86" y1="135.08" x2="68.36" y2="92.58" gradientUnits="userSpaceOnUse"><stop offset="0" stop-color="#dbb8a1"/><stop offset="0.3" stop-color="#e1bda5"/><stop offset="1" stop-color="#f0c9ae"/></linearGradient><linearGradient id="linear-gradient-4" x1="105.81" y1="179.79" x2="263.81" y2="179.79" gradientUnits="userSpaceOnUse"><stop offset="0" stop-color="#fff"/><stop offset="1" stop-color="#f1f1f1"/></linearGradient><linearGradient id="linear-gradient-5" x1="119.42" y1="149.68" x2="134.81" y2="149.68" xlink:href="#linear-gradient-4"/><linearGradient id="linear-gradient-6" x1="109.81" y1="216.29" x2="163.81" y2="216.29" xlink:href="#linear-gradient-4"/></defs><title>illustr-step2</title><g id="Layer_2" data-name="Layer 2"><g id="Layer_1-2" data-name="Layer 1"><path class="cls-1" d="M61.74,60.29c-37.47,13.79-71,65-59.4,120s89.1,80,147.2,78,84.16-22.65,93-58c8.86-35.53-9.34-53.19-36.7-73C176.81,106.29,165,22.29,61.74,60.29Z"/><path class="cls-2" d="M130.39,92.78h-.07l-62.8-.53a7.92,7.92,0,0,1,.07-15.83h.07l62.8.53a7.92,7.92,0,0,1-.07,15.83Z"/><path class="cls-3" d="M59.62,114a7.92,7.92,0,0,1-2.27-15.5l70.76-21.23a7.92,7.92,0,1,1,4.55,15.16L61.9,113.68A7.91,7.91,0,0,1,59.62,114Z"/><path class="cls-4" d="M59.3,138.88a8.71,8.71,0,0,1-4.67-16.06l36-22.84A8.71,8.71,0,0,1,100,114.69L64,137.52A8.67,8.67,0,0,1,59.3,138.88Z"/><path class="cls-5" d="M148.22,154.79a7.92,7.92,0,0,1-5-14.07,24.57,24.57,0,1,0-30.91,0,7.92,7.92,0,1,1-10,12.3,40.4,40.4,0,1,1,50.85,0A7.89,7.89,0,0,1,148.22,154.79Z"/><path class="cls-5" d="M101.81,90.29c7.82-7.19,19-14,19-38,0-11,.6-7,.6-7h41.4l2,36s8.85,26.8,3,45.79-12.43-22.54-12.43-22.54-14-16-27.67-15.45-32.94,9.2-32.94,9.2S99.86,92.09,101.81,90.29Z"/><path class="cls-1" d="M218,66.29c-10.45,5-33.36,38.21-9,52C231.85,131.28,278.57,37.42,218,66.29Z"/><path class="cls-6" d="M121.52,127.29h138.3a0,0,0,0,1,0,0v88.06a16.94,16.94,0,0,1-16.94,16.94H101.81a0,0,0,0,1,0,0V147A19.7,19.7,0,0,1,121.52,127.29Z"/><path class="cls-7" d="M125.52,127.29h138.3a0,0,0,0,1,0,0v88.06a16.94,16.94,0,0,1-16.94,16.94H105.81a0,0,0,0,1,0,0V147A19.7,19.7,0,0,1,125.52,127.29Z"/><path class="cls-8" d="M180.65,133.85c.66-.68,2.42-1.2,2.23-1.57H126.75A16.76,16.76,0,0,0,110,149.23l.82,78.06H175.2a12,12,0,0,1-7.38-11.1V205H156.6c-6.83,0-9.63-3.37-10.77-6.2a12.51,12.51,0,0,1,2.45-12.95c2.06-2.41,9.76-10.32,16.14-16.82h-.14a7.43,7.43,0,0,1-6.87-4.7A7.77,7.77,0,0,1,159,156Z"/><path class="cls-8" d="M214.87,216.18V205h11.22c6.83,0,9.63-3.37,10.77-6.2a12.51,12.51,0,0,0-2.45-12.95c-2.06-2.41-9.76-10.32-16.14-16.82h.14a7.43,7.43,0,0,0,6.87-4.7,7.77,7.77,0,0,0-1.62-8.3L202,133.85a7.37,7.37,0,0,0-2.23-1.57h59.07V214a13.32,13.32,0,0,1-13.32,13.32H207.49A12,12,0,0,0,214.87,216.18Z"/><path class="cls-9" d="M134.65,153.24a2.31,2.31,0,0,0-.47-2.45c-.43-.46-2-2-3.09-3.15h.1a1.4,1.4,0,0,0,1.29-.88,1.46,1.46,0,0,0-.3-1.56L128.11,141a1.37,1.37,0,0,0-2,0l-4.06,4.17a1.46,1.46,0,0,0-.3,1.56,1.4,1.4,0,0,0,1.29.88h0c-1.2,1.22-2.65,2.71-3,3.16a2.35,2.35,0,0,0-.46,2.43,2,2,0,0,0,2,1.16h2.11v2.11a2.22,2.22,0,0,0,2.19,2.25h2.41a2.22,2.22,0,0,0,2.19-2.25V154.4h2.11A2,2,0,0,0,134.65,153.24Zm-6.14-1v4h-2.79v-4h-3.55l5-5.08,5,5.08Z"/><rect class="cls-10" x="179.81" y="155.29" width="29" height="4"/><rect class="cls-10" x="181.14" y="172.29" width="26" height="3.13"/><rect class="cls-10" x="177.14" y="178.73" width="34" height="3.13"/><rect class="cls-10" x="180.14" y="185.16" width="28" height="3.13"/><rect class="cls-10" x="179.81" y="205.16" width="16" height="3.13"/><rect class="cls-10" x="179.81" y="211.16" width="11" height="3.13"/><polygon class="cls-11" points="219.81 241.29 219.81 216.29 204.81 216.29 204.81 241.29 212.31 233.79 219.81 241.29"/><circle class="cls-12" cx="211.31" cy="207.79" r="12.5"/><circle class="cls-13" cx="213.31" cy="207.79" r="12.5"/><polygon class="cls-14" points="159.81 220.29 109.81 220.29 109.81 212.29 159.81 212.29 163.81 216.29 159.81 220.29"/><path class="cls-5" d="M127.81,81.21V97a24.57,24.57,0,0,1,15.43,43.67,7.92,7.92,0,1,0,10,12.3,40.4,40.4,0,0,0-25.39-71.81Z"/><path class="cls-5" d="M153.81,32.37V28.7a5.5,5.5,0,0,0-5.5-5.5h0a5.5,5.5,0,0,0-5.5,5.5v9.17a5.5,5.5,0,0,1-5.5,5.5h0a5.5,5.5,0,0,1-5.5-5.5h0a5.5,5.5,0,0,0-5.5-5.5h0a5.5,5.5,0,0,0-5.5,5.5V80.79a5.5,5.5,0,0,0,5.5,5.5h0a5.5,5.5,0,0,1,5.5,5.5h0a5.5,5.5,0,0,0,5.5,5.5h0a5.5,5.5,0,0,0,5.5-5.5V82.62a5.5,5.5,0,0,1,5.5-5.5h0a5.5,5.5,0,0,1,5.5,5.5v3.67a5.5,5.5,0,0,0,5.5,5.5h0a5.5,5.5,0,0,0,5.5-5.5V43.37a5.5,5.5,0,0,0-5.5-5.5h0A5.5,5.5,0,0,1,153.81,32.37Z"/><rect class="cls-15" x="130.36" y="34.01" width="19.89" height="52.48" transform="translate(204.29 -78.39) rotate(91.53)"/><rect class="cls-16" x="129.61" y="17.85" width="22.09" height="58.31" transform="translate(191.4 -92.35) rotate(91.53)"/><path class="cls-16" d="M123.51,37.37l11.6.31L135,40.77l11.6.31-.12,4.42,11.6.31.12-4.42,11.6.31.79-29.54a5.8,5.8,0,0,0-5.64-6h0a5.8,5.8,0,0,0-6,5.64L158.81,19a5.8,5.8,0,0,1-6,5.64h0a5.8,5.8,0,0,1-5.64-6l.19-7.18a5.8,5.8,0,0,0-5.64-6h0a5.8,5.8,0,0,0-6,5.64l-.38,14.36a5.8,5.8,0,0,1-6,5.64h0a5.8,5.8,0,0,1-5.64-6l.06-2.21a5.8,5.8,0,0,0-5.64-6h0a5.8,5.8,0,0,0-6,5.64L111.46,54l11.6.31Z"/><circle class="cls-16" cx="118.82" cy="6.08" r="6.08" transform="translate(109.57 124.69) rotate(-88.47)"/><circle class="cls-1" cx="128.83" cy="45.02" r="6.08" transform="translate(80.38 172.6) rotate(-88.47)"/><path d="M80.37,232.09H16.13V216.35l21.62-21.86Q47,184.8,49.85,181.26a29,29,0,0,0,4-6.08,13.08,13.08,0,0,0,1.12-5.33,6.93,6.93,0,0,0-2.24-5.45,9.14,9.14,0,0,0-6.3-2A17.19,17.19,0,0,0,38,164.79a60.64,60.64,0,0,0-9.66,7.05L15.16,156.47a70.86,70.86,0,0,1,11.5-8.75,41.08,41.08,0,0,1,10.14-4,50.13,50.13,0,0,1,12.32-1.39,37.15,37.15,0,0,1,15.35,3A24,24,0,0,1,74.95,154a22.19,22.19,0,0,1,3.72,12.56,32.32,32.32,0,0,1-5.33,18.32,60.11,60.11,0,0,1-7.24,9q-4.51,4.72-19.22,17.92v.61H80.37Z"/></g></g></svg>