<svg xmlns="http://www.w3.org/2000/svg" viewBox="0 0 274.25 223.33"><defs><style>.cls-1{fill:#edf0f5;}.cls-2{fill:#f0c9ae;}.cls-3{fill:#fff;}.cls-4{fill:#646994;}.cls-5{fill:#ff8960;}.cls-6{fill:#ff9d5d;}.cls-7{opacity:0.39;}.cls-8{fill:#ffee7a;}.cls-9{fill:#b5b8bc;}.cls-10{fill:#9c9da0;}</style></defs><title>illustr-step1-</title><g id="Layer_2" data-name="Layer 2"><g id="Layer_1-2" data-name="Layer 1"><path class="cls-1" d="M155.75.82c73.58-7,117.53,31.88,118.47,77,1.25,60-33.16,106.26-72.33,127-66.09,35-208.64,20-201.64-42,8.6-76.21,54.17-42.17,86-74C116.25,58.82,76.75,8.33,155.75.82Z"/><path d="M53.91,171.62H29.63V124.76q0-8.54.36-15.62a52,52,0,0,1-5.57,5.69l-10.05,8.29L2,107.87,32.35,83.1H53.91Z"/><path class="cls-1" d="M25.25,13.82c-7.88,4-24,33,5,35S53.76-.7,25.25,13.82Z"/><path class="cls-2" d="M226.81,42.82H186l.33-2.76h37.73a6.08,6.08,0,0,0,0-12.15H160.16V25.14h21.45a6.08,6.08,0,0,0,0-12.15H156.66a6.05,6.05,0,0,0-4.47,2l-25.36,15.7H101.43V73.2h22.65l22.65,10.5.81-.07a6.09,6.09,0,0,0,.84.07h59.19a6.08,6.08,0,1,0,0-12.15h-25l.26-2.21h39.48a6.08,6.08,0,0,0,0-12.15h-38l.26-2.21h42.27a6.08,6.08,0,0,0,0-12.15Z"/><rect class="cls-3" x="100.32" y="25.7" width="19.89" height="52.48"/><rect class="cls-4" x="85.96" y="22.78" width="22.09" height="58.31"/><path class="cls-4" d="M87.84,69.33V57.73h3.09V46.13h4.42V34.53H90.93V22.93H61.38a5.8,5.8,0,0,0-5.8,5.8h0a5.8,5.8,0,0,0,5.8,5.8h7.18a5.8,5.8,0,0,1,5.8,5.8h0a5.8,5.8,0,0,1-5.8,5.8H61.38a5.8,5.8,0,0,0-5.8,5.8h0a5.8,5.8,0,0,0,5.8,5.8H75.74a5.8,5.8,0,0,1,5.8,5.8h0a5.8,5.8,0,0,1-5.8,5.8H73.53a5.8,5.8,0,0,0-5.8,5.8h0a5.8,5.8,0,0,0,5.8,5.8h31.21V69.33Z"/><circle class="cls-4" cx="56.68" cy="74.86" r="6.08"/><circle class="cls-1" cx="95.35" cy="63.81" r="6.08"/><circle class="cls-5" cx="182.62" cy="107.43" r="8.29"/><circle class="cls-5" cx="166.61" cy="86.74" r="14.91"/><circle class="cls-6" cx="163.29" cy="86.74" r="14.91"/><circle class="cls-6" cx="180.41" cy="107.43" r="8.29"/><g class="cls-7"><path class="cls-8" d="M157.54,97.57l15.82-15.82a11.72,11.72,0,0,0-2.24-2.8L160.26,89.78a1.48,1.48,0,0,1-.15.19l-5.36,5.36A11.72,11.72,0,0,0,157.54,97.57Z"/><path class="cls-8" d="M168.85,77.32A11.6,11.6,0,0,0,153.1,93Q161,85.17,168.85,77.32Z"/></g><g class="cls-7"><path class="cls-8" d="M177.07,113l8.87-8.87a6.57,6.57,0,0,0-1.26-1.57l-6.09,6.07-.09.1-3,3A6.57,6.57,0,0,0,177.07,113Z"/><path class="cls-8" d="M183.41,101.6a6.51,6.51,0,0,0-8.84,8.82Z"/></g><circle class="cls-5" cx="149.48" cy="101.91" r="14.91"/><circle class="cls-6" cx="146.17" cy="101.91" r="14.91"/><g class="cls-7"><path class="cls-8" d="M140.42,112l15.82-15.82a11.72,11.72,0,0,0-2.24-2.8l-10.85,10.83a1.48,1.48,0,0,1-.15.19l-5.36,5.36A11.72,11.72,0,0,0,140.42,112Z"/><path class="cls-8" d="M151.73,91.72A11.6,11.6,0,0,0,136,107.44Q143.84,99.57,151.73,91.72Z"/></g><path class="cls-9" d="M217,171.32c10.1-2.81,16.22-6.48,16.22-10.5,0-8.84-29.55-16-66-16s-66,7.16-66,16c0,4,6.13,7.69,16.22,10.5,12.1-3.37,29.91-5.5,49.78-5.5S204.93,168,217,171.32Z"/><path class="cls-10" d="M217,171.32c-12.1-3.37-29.91-5.5-49.78-5.5s-37.68,2.13-49.78,5.5c12.1,3.37,29.91,5.5,49.78,5.5S204.93,174.69,217,171.32Z"/></g></g></svg>